<svg width="3705" height="2451" xmlns="http://www.w3.org/2000/svg" xmlns:xlink="http://www.w3.org/1999/xlink" xml:space="preserve" overflow="hidden"><defs><clipPath id="clip0"><rect x="371" y="23" width="3705" height="2451"/></clipPath><linearGradient x1="466" y1="858" x2="1242" y2="858" gradientUnits="userSpaceOnUse" spreadMethod="reflect" id="fill1"><stop offset="0" stop-color="#4F4F4F"/><stop offset="0.5" stop-color="#272727"/><stop offset="1"/></linearGradient><linearGradient x1="466" y1="469.5" x2="1242" y2="469.5" gradientUnits="userSpaceOnUse" spreadMethod="reflect" id="fill2"><stop offset="0" stop-color="#4F4F4F"/><stop offset="0.5" stop-color="#272727"/><stop offset="1"/></linearGradient><linearGradient x1="459.735" y1="674.154" x2="1248.26" y2="652.847" gradientUnits="userSpaceOnUse" spreadMethod="reflect" id="fill3"><stop offset="0" stop-color="#B04615"/><stop offset="0.5" stop-color="#C95018"/><stop offset="1" stop-color="#E25A1C"/></linearGradient><linearGradient x1="459.124" y1="263.733" x2="1248.88" y2="287.267" gradientUnits="userSpaceOnUse" spreadMethod="reflect" id="fill4"><stop offset="0" stop-color="#B04615"/><stop offset="0.5" stop-color="#C95018"/><stop offset="1" stop-color="#E25A1C"/></linearGradient><linearGradient x1="463.146" y1="1047.32" x2="1244.85" y2="1056.68" gradientUnits="userSpaceOnUse" spreadMethod="reflect" id="fill5"><stop offset="0" stop-color="#B04615"/><stop offset="0.5" stop-color="#C95018"/><stop offset="1" stop-color="#E25A1C"/></linearGradient><linearGradient x1="1584.59" y1="1291.6" x2="2691.54" y2="2398.63" gradientUnits="userSpaceOnUse" spreadMethod="reflect" id="fill6"><stop offset="0" stop-color="#CBCED0"/><stop offset="0.5" stop-color="#A7A8AD"/><stop offset="1" stop-color="#84838B"/></linearGradient><clipPath id="clip7"><rect x="2994" y="36" width="1082" height="1082"/></clipPath><clipPath id="clip8"><rect x="2994" y="36" width="1082" height="1082"/></clipPath><clipPath id="clip9"><rect x="2994" y="36" width="1082" height="1082"/></clipPath></defs><g clip-path="url(#clip0)" transform="translate(-371 -23)"><path d="M466 809.335 466 906.666C466 923.072 818.768 950.552 1048.6 1004L1048.6 1004C1159.64 978.176 1242 946.302 1242 906.666L1242 906.666 1242 809.335C1242 769.718 1159.64 737.824 1048.6 712L1048.6 712C818.768 765.458 466 792.938 466 809.335" fill="url(#fill1)" fill-rule="evenodd"/><path d="M466 420.999 466 517.999C466 534.349 818.768 561.735 1048.6 615L1048.6 615C1159.64 589.261 1242 557.5 1242 517.999L1242 517.999 1242 420.999C1242 381.521 1159.64 349.737 1048.6 324L1048.6 324C818.768 377.276 466 404.662 466 420.999" fill="url(#fill2)" fill-rule="evenodd"/><path d="M466 615.001 466 906C466 881.753 1242 833.25 1242 712.002L1242 712.002 1242 421C1242 542.252 466 590.75 466 615.001" fill="url(#fill3)" fill-rule="evenodd"/><path d="M466 227.001 466 518C466 493.752 1242 445.25 1242 324.001L1242 324.001 1242 33C1242 154.25 466 202.75 466 227.001" fill="url(#fill4)" fill-rule="evenodd"/><path d="M466 1003.4 466 1295C466 1270.7 1242 1222.1 1242 1100.6L1242 1100.6 1242 809C1242 930.498 466 979.097 466 1003.4" fill="url(#fill5)" fill-rule="evenodd"/><path d="M2121.13 23.0105C1830.15 23.0105 1848.32 149.214 1848.32 149.214L1848.64 279.961 2126.32 279.961 2126.32 319.216 1738.35 319.216C1738.35 319.216 1552.15 298.097 1552.15 591.739 1552.15 885.378 1714.67 874.965 1714.67 874.965L1811.66 874.965 1811.66 738.704C1811.66 738.704 1806.43 576.166 1971.59 576.166 2136.74 576.166 2246.99 576.166 2246.99 576.166 2246.99 576.166 2401.73 578.668 2401.73 426.606 2401.73 274.538 2401.73 175.168 2401.73 175.168 2401.73 175.168 2425.22 23.0105 2121.13 23.0105ZM1968.02 110.931C1995.64 110.931 2017.97 133.263 2017.97 160.894 2017.97 188.524 1995.64 210.856 1968.02 210.856 1940.39 210.856 1918.06 188.524 1918.06 160.894 1918.06 133.263 1940.39 110.931 1968.02 110.931Z" fill="#5FCBEF" fill-rule="evenodd"/><path d="M2129.19 1163.03C2420.17 1163.03 2401.99 1036.98 2401.99 1036.98L2401.67 906.386 2124 906.386 2124 867.178 2511.97 867.178C2511.97 867.178 2698.17 888.27 2698.17 594.977 2698.17 301.678 2535.64 312.078 2535.64 312.078L2438.66 312.078 2438.66 448.176C2438.66 448.176 2443.88 610.532 2278.73 610.532 2113.58 610.532 2003.32 610.532 2003.32 610.532 2003.32 610.532 1848.59 608.033 1848.59 759.916 1848.59 911.799 1848.59 1011.06 1848.59 1011.06 1848.59 1011.06 1825.1 1163.03 2129.19 1163.03ZM2282.3 1075.21C2254.68 1075.21 2232.35 1052.91 2232.35 1025.31 2232.35 997.71 2254.68 975.405 2282.3 975.405 2309.93 975.405 2332.26 997.71 2332.26 1025.31 2332.26 1052.91 2309.93 1075.21 2282.3 1075.21Z" fill="#E25A1C" fill-rule="evenodd"/><path d="M639.004 2219C639.004 2219 596.073 2244.02 669.556 2252.48 758.582 2262.66 804.081 2261.2 902.184 2242.59 902.184 2242.59 927.979 2258.8 964 2272.84 744.074 2367.28 466.264 2267.37 639.004 2219" fill="#5FCBEF" fill-rule="evenodd"/><path d="M611.571 2096C611.571 2096 563.335 2131.65 637.003 2139.26 732.267 2149.07 807.502 2149.88 937.681 2124.85 937.681 2124.85 955.688 2143.07 984.001 2153.04 717.63 2230.82 420.944 2159.18 611.571 2096" fill="#5FCBEF" fill-rule="evenodd"/><path d="M838.781 1887.26C893.053 1949.76 824.521 2006 824.521 2006 824.521 2006 962.33 1934.84 899.04 1845.74 839.931 1762.64 794.598 1721.35 1040 1579 1040 1579 654.802 1675.22 838.781 1887.26" fill="#E25A1C" fill-rule="evenodd"/><path d="M1129.31 2310.47C1129.31 2310.47 1161.12 2336.54 1094.28 2356.71 967.183 2395.01 565.288 2406.58 453.643 2358.23 413.509 2340.87 488.771 2316.76 512.445 2311.7 537.136 2306.38 551.245 2307.37 551.245 2307.37 506.612 2276.09 262.759 2368.79 427.379 2395.33 876.324 2467.76 1245.76 2362.72 1129.31 2310.47" fill="#5FCBEF" fill-rule="evenodd"/><path d="M659.483 1968.18C659.483 1968.18 455.08 2016.74 587.099 2034.38 642.842 2041.84 753.965 2040.15 857.469 2031.48 942.06 2024.34 1027 2009.17 1027 2009.17 1027 2009.17 997.173 2021.94 975.594 2036.68 768.025 2091.28 367.042 2065.88 482.48 2010.03 580.106 1962.83 659.483 1968.18 659.483 1968.18" fill="#5FCBEF" fill-rule="evenodd"/><path d="M1026.23 2173.46C1236.36 2063.49 1139.2 1957.81 1071.39 1972.05 1054.76 1975.53 1047.35 1978.55 1047.35 1978.55 1047.35 1978.55 1053.52 1968.82 1065.31 1964.61 1199.47 1917.1 1302.64 2104.7 1022 2179 1022 2179 1025.25 2176.08 1026.23 2173.46" fill="#5FCBEF" fill-rule="evenodd"/><path d="M899.013 1349C899.013 1349 1015.89 1465.9 788.162 1645.65 605.551 1789.85 746.521 1872.07 788.087 1966 681.494 1869.84 603.268 1785.19 655.748 1706.4 732.778 1590.76 946.168 1534.68 899.013 1349" fill="#E25A1C" fill-rule="evenodd"/><path d="M680.02 2470.45C882.58 2483.47 1193.63 2463.23 1201 2367 1201 2367 1186.84 2403.48 1033.59 2432.45 860.708 2465.11 647.472 2461.3 521 2440.36 521.003 2440.36 546.89 2461.88 680.02 2470.45" fill="#5FCBEF" fill-rule="evenodd"/><path d="M2138.07 2289.12C1771.9 2289.12 1475.07 2090.33 1475.07 1845.12 1475.07 1599.9 1771.9 1401.12 2138.07 1401.12 2504.23 1401.12 2801.07 1599.9 2801.07 1845.12 2801.07 2090.33 2504.23 2289.12 2138.07 2289.12ZM2239.55 1574.71C1961.23 1574.71 1735.61 1710.6 1735.61 1878.24 1735.61 2045.88 1961.23 2181.78 2239.55 2181.78 2517.86 2181.78 2723.26 2088.87 2723.26 1878.24 2723.26 1667.68 2517.86 1574.71 2239.55 1574.71Z" fill="url(#fill6)" fill-rule="evenodd"/><path d="M2484.52 2088.67C2484.52 2088.67 2524.66 2100.77 2547.97 2112.55 2556.06 2116.64 2570.06 2124.8 2580.16 2135.51 2590.05 2146.01 2594.87 2156.64 2594.87 2156.64L2753.04 2422.99 2497.4 2423.1 2377.85 2198.89C2377.85 2198.89 2353.37 2156.88 2338.31 2144.7 2325.74 2134.54 2320.38 2130.92 2307.96 2130.92 2299.31 2130.92 2247.22 2130.92 2247.22 2130.92L2247.27 2422.94 2021.04 2423.03 2021.04 1677.1 2475.33 1677.1C2475.33 1677.1 2682.24 1680.83 2682.24 1877.43 2682.24 2074.04 2484.52 2088.67 2484.52 2088.67ZM2386.12 1838.9 2249.17 1838.81 2249.1 1965.65 2386.12 1965.61C2386.12 1965.61 2449.58 1965.41 2449.58 1901.09 2449.58 1835.47 2386.12 1838.9 2386.12 1838.9Z" fill="#5FCBEF" fill-rule="evenodd"/><path d="M4027.25 1692.98C4027.25 1674.8 4023.26 1658.74 4015.2 1644.95 4007.29 1631.4 3995.43 1620.04 3979.53 1611.05 3848.26 1537.22 3716.87 1463.62 3585.65 1389.71 3550.28 1369.79 3515.98 1370.51 3480.86 1390.72 3428.61 1420.78 3167.03 1566.97 3089.08 1611.01 3056.98 1629.14 3041.36 1656.88 3041.35 1692.94 3041.3 1841.42 3041.35 1989.89 3041.3 2138.38 3041.3 2156.15 3045.13 2171.9 3052.83 2185.48 3060.75 2199.45 3072.77 2211.12 3089.04 2220.31 3166.99 2264.35 3428.61 2410.53 3480.85 2440.59 3515.98 2460.81 3550.28 2461.53 3585.66 2441.6 3716.89 2367.69 3848.29 2294.09 3979.57 2220.26 3995.84 2211.08 4007.86 2199.4 4015.78 2185.44 4023.47 2171.87 4027.3 2156.12 4027.3 2138.33 4027.3 2138.33 4027.3 1841.46 4027.25 1692.98" fill="#5FCBEF" fill-rule="evenodd"/><path d="M3535.81 1914.16 3052.3 2185.46C3060.23 2199.43 3072.27 2211.1 3088.55 2220.29 3166.59 2264.33 3428.49 2410.53 3480.79 2440.59 3515.95 2460.82 3550.29 2461.54 3585.72 2441.61 3717.09 2367.69 3848.63 2294.08 3980.06 2220.24 3996.34 2211.06 4008.38 2199.38 4016.3 2185.42L3535.81 1914.16" fill="#17B4E7" fill-rule="evenodd"/><path d="M4027.26 1693.23C4027.25 1675.03 4023.27 1658.96 4015.22 1645.16L3536.31 1914.67 4015.8 2186.16C4023.48 2172.57 4027.3 2156.81 4027.31 2139.01 4027.31 2139.01 4027.31 1841.85 4027.26 1693.23" fill="#128EBA" fill-rule="evenodd"/><path d="M3820.31 1813.16 3820.31 1863.91 3872.31 1863.91 3872.31 1813.16 3898.31 1813.16 3898.31 1863.91 3950.31 1863.91 3950.31 1889.29 3898.31 1889.29 3898.31 1940.03 3950.31 1940.03 3950.31 1965.41 3898.31 1965.41 3898.31 2016.16 3872.31 2016.16 3872.31 1965.41 3820.31 1965.41 3820.31 2016.16 3794.31 2016.16 3794.31 1965.41 3742.31 1965.41 3742.31 1940.03 3794.31 1940.03 3794.31 1889.29 3742.31 1889.29 3742.31 1863.91 3794.31 1863.91 3794.31 1813.16ZM3872.31 1889.29 3820.31 1889.29 3820.31 1940.03 3872.31 1940.03Z" fill="#FFFFFF" fill-rule="evenodd"/><path d="M3536.78 1558.16C3672.35 1558.16 3790.72 1629.98 3854.12 1736.74L3853.49 1735.72 3693.99 1825.31C3662.56 1773.41 3604.95 1738.37 3538.86 1737.65L3536.78 1737.64C3436 1737.64 3354.29 1817.34 3354.29 1915.66 3354.29 1947.81 3363.08 1977.95 3378.36 2003.98 3409.81 2057.55 3468.95 2093.68 3536.78 2093.68 3605.03 2093.68 3664.5 2057.09 3695.79 2002.95L3695.03 2004.25 3854.3 2094.25C3791.6 2200.11 3674.86 2271.71 3540.86 2273.14L3536.78 2273.16C3400.78 2273.16 3282.08 2200.89 3218.84 2093.57 3187.97 2041.18 3170.3 1980.43 3170.3 1915.66 3170.3 1718.22 3334.38 1558.16 3536.78 1558.16Z" fill="#FFFFFF" fill-rule="evenodd"/><g clip-path="url(#clip7)"><g clip-path="url(#clip8)"><g clip-path="url(#clip9)"><path d="M2994 36.0001 4076 36.0001 4076 1118 2994 1118Z" fill="#00BBF1" fill-opacity="0.996078"/><path d="M3186.85 727.277C3179.2 727.277 3172.69 724.729 3167.34 719.629 3161.98 714.4 3159.31 708.19 3159.31 701.001 3159.31 693.678 3161.98 687.404 3167.34 682.175 3172.69 676.945 3179.2 674.33 3186.85 674.33 3194.62 674.33 3201.19 676.945 3206.55 682.175 3212.03 687.404 3214.77 693.678 3214.77 701.001 3214.77 708.19 3212.03 714.4 3206.55 719.629 3201.19 724.729 3194.62 727.277 3186.85 727.277Z" fill="#FFFFFF"/><path d="M3492.69 722.963 3442.96 722.963 3311.94 516.27C3308.63 511.041 3305.88 505.614 3303.72 499.993L3302.57 499.993C3303.59 506.008 3304.1 518.885 3304.1 538.625L3304.1 722.963 3260.11 722.963 3260.11 441.75 3313.09 441.75 3439.71 643.541C3445.06 651.91 3448.5 657.661 3450.03 660.798L3450.8 660.798C3449.52 653.347 3448.89 640.731 3448.89 622.949L3448.89 441.75 3492.69 441.75 3492.69 722.963Z" fill="#FFFFFF"/><path d="M3706.91 722.963 3552.94 722.963 3552.94 441.75 3700.79 441.75 3700.79 481.364 3598.46 481.364 3598.46 560.981 3692.76 560.981 3692.76 600.398 3598.46 600.398 3598.46 683.546 3706.91 683.546 3706.91 722.963Z" fill="#FFFFFF"/><path d="M3925.72 481.364 3846.92 481.364 3846.92 722.963 3801.4 722.963 3801.4 481.364 3722.79 481.364 3722.79 441.75 3925.72 441.75 3925.72 481.364Z" fill="#FFFFFF"/></g></g></g></g></svg>