<svg width="1839" height="1420" xmlns="http://www.w3.org/2000/svg" xmlns:xlink="http://www.w3.org/1999/xlink" overflow="hidden"><defs><clipPath id="clip0"><rect x="1133" y="770" width="1839" height="1420"/></clipPath><clipPath id="clip1"><rect x="1133" y="1479" width="710" height="712"/></clipPath><clipPath id="clip2"><rect x="1133" y="1479" width="710" height="712"/></clipPath><clipPath id="clip3"><rect x="1133" y="1479" width="710" height="712"/></clipPath></defs><g clip-path="url(#clip0)" transform="translate(-1133 -770)"><rect x="1260" y="1639" width="455" height="305" fill="#80DDF8"/><g clip-path="url(#clip1)"><g clip-path="url(#clip2)"><g clip-path="url(#clip3)"><path d="M561.292 443.125 147.708 443.125 147.708 192.021 561.292 192.021 561.292 443.125ZM605.604 177.25C605.604 161.002 592.311 147.708 576.063 147.708L132.938 147.708C116.69 147.708 103.396 161.002 103.396 177.25L103.396 487.438 605.604 487.438 605.604 177.25Z" fill="#00BBF1" transform="matrix(1 0 0 1.00141 1133 1480)"/><path d="M398.813 516.979 398.813 524.365C398.813 528.796 395.858 531.75 391.427 531.75L317.573 531.75C313.142 531.75 310.188 528.796 310.188 524.365L310.188 516.979 14.7708 516.979 14.7708 531.75C14.7708 547.998 28.0646 561.292 44.3125 561.292L664.688 561.292C680.936 561.292 694.229 547.998 694.229 531.75L694.229 516.979 398.813 516.979Z" fill="#00BBF1" transform="matrix(1 0 0 1.00141 1133 1480)"/></g></g></g><path d="M2092 1614 2135 1614 2135 1671 2092 1671Z" fill="#E25A1C" fill-rule="evenodd"/><path d="M2092 1700 2135 1700 2135 1742 2092 1742Z" fill="#E25A1C" fill-rule="evenodd"/><path d="M2164 1700 2370 1700 2370 1742 2164 1742Z" fill="#E25A1C" fill-rule="evenodd"/><path d="M1858 1700 2064 1700 2064 1742 1858 1742Z" fill="#E25A1C" fill-rule="evenodd"/><path d="M2316.49 1500 1911.51 1500C1897.42 1500 1886 1511.42 1886 1525.51L1886 1588.49C1886 1602.58 1897.42 1614 1911.51 1614L2316.49 1614C2330.58 1614 2342 1602.58 2342 1588.49L2342 1525.51C2342 1511.42 2330.58 1500 2316.49 1500ZM1957.25 1571.25C1949.38 1571.25 1943 1564.87 1943 1557 1943 1549.13 1949.38 1542.75 1957.25 1542.75 1965.12 1542.75 1971.5 1549.13 1971.5 1557 1971.5 1564.87 1965.12 1571.25 1957.25 1571.25ZM2028.5 1571.25C2020.63 1571.25 2014.25 1564.87 2014.25 1557 2014.25 1549.13 2020.63 1542.75 2028.5 1542.75 2036.37 1542.75 2042.75 1549.13 2042.75 1557 2042.75 1564.87 2036.37 1571.25 2028.5 1571.25ZM2099.75 1571.25C2091.88 1571.25 2085.5 1564.87 2085.5 1557 2085.5 1549.13 2091.88 1542.75 2099.75 1542.75 2107.62 1542.75 2114 1549.13 2114 1557 2114 1564.87 2107.62 1571.25 2099.75 1571.25Z" fill="#00BBF1" fill-rule="evenodd"/><path d="M2316.49 1358 1911.51 1358C1897.42 1358 1886 1369.42 1886 1383.51L1886 1446.49C1886 1460.58 1897.42 1472 1911.51 1472L2316.49 1472C2330.58 1472 2342 1460.58 2342 1446.49L2342 1383.51C2342 1369.42 2330.58 1358 2316.49 1358ZM1957.25 1429.25C1949.38 1429.25 1943 1422.87 1943 1415 1943 1407.13 1949.38 1400.75 1957.25 1400.75 1965.12 1400.75 1971.5 1407.13 1971.5 1415 1971.5 1422.87 1965.12 1429.25 1957.25 1429.25ZM2028.5 1429.25C2020.63 1429.25 2014.25 1422.87 2014.25 1415 2014.25 1407.13 2020.63 1400.75 2028.5 1400.75 2036.37 1400.75 2042.75 1407.13 2042.75 1415 2042.75 1422.87 2036.37 1429.25 2028.5 1429.25ZM2099.75 1429.25C2091.88 1429.25 2085.5 1422.87 2085.5 1415 2085.5 1407.13 2091.88 1400.75 2099.75 1400.75 2107.62 1400.75 2114 1407.13 2114 1415 2114 1422.87 2107.62 1429.25 2099.75 1429.25Z" fill="#00BBF1" fill-rule="evenodd"/><path d="M2316.49 1216 1911.51 1216C1897.42 1216 1886 1227.42 1886 1241.51L1886 1304.49C1886 1318.58 1897.42 1330 1911.51 1330L2316.49 1330C2330.58 1330 2342 1318.58 2342 1304.49L2342 1241.51C2342 1227.42 2330.58 1216 2316.49 1216ZM1957.25 1287.25C1949.38 1287.25 1943 1280.87 1943 1273 1943 1265.13 1949.38 1258.75 1957.25 1258.75 1965.12 1258.75 1971.5 1265.13 1971.5 1273 1971.5 1280.87 1965.12 1287.25 1957.25 1287.25ZM2028.5 1287.25C2020.63 1287.25 2014.25 1280.87 2014.25 1273 2014.25 1265.13 2020.63 1258.75 2028.5 1258.75 2036.37 1258.75 2042.75 1265.13 2042.75 1273 2042.75 1280.87 2036.37 1287.25 2028.5 1287.25ZM2099.75 1287.25C2091.88 1287.25 2085.5 1280.87 2085.5 1273 2085.5 1265.13 2091.88 1258.75 2099.75 1258.75 2107.62 1258.75 2114 1265.13 2114 1273 2114 1280.87 2107.62 1287.25 2099.75 1287.25Z" fill="#00BBF1" fill-rule="evenodd"/><path d="M2468.7 1106.44C2475.81 1106.83 2496.56 1107 2496.56 1107L2876.63 1107C2923.41 1106.82 2961.19 1068.8 2961 1022.09 2960.82 975.919 2923.58 938.426 2877.34 937.86L2870.3 937.86C2870.24 903.832 2853.74 871.924 2826 852.164 2797.89 832.526 2762.04 827.563 2729.64 838.822 2697.82 776.714 2621.61 752.116 2559.4 783.882 2517.31 805.377 2490.74 848.512 2490.5 895.716L2490.5 897.12C2484.99 896.219 2479.41 895.765 2473.81 895.763 2415.44 895.695 2368.07 942.887 2368 1001.17 2367.98 1016.67 2371.39 1031.99 2377.97 1046.03 2395.05 1081.06 2429.74 1104.16 2468.7 1106.44ZM2400.46 946.305C2418.01 923.549 2445.05 910.094 2473.81 909.806 2478.64 909.81 2483.46 910.202 2488.23 910.978L2504.57 913.646 2504.57 895.713C2504.95 833.7 2555.61 783.739 2617.71 784.121 2659.67 784.379 2698 807.94 2717.12 845.234L2722.71 856.096 2734.26 852.085C2781.72 835.143 2833.94 859.822 2850.91 907.208 2854.43 917.044 2856.23 927.413 2856.24 937.86L2856.24 951.905 2877.33 951.905C2916.34 952.478 2947.5 984.516 2946.93 1023.46 2946.36 1061.88 2915.11 1092.77 2876.63 1092.96L2482 1092.96 2469.46 1092.41C2419.04 1090.24 2379.93 1047.67 2382.11 997.333 2382.91 978.859 2389.31 961.064 2400.46 946.305Z" fill="#E25A1C" fill-rule="evenodd"/><path d="M2914 1103C2914 1196.89 2838.11 1273 2744.5 1273 2650.89 1273 2575 1196.89 2575 1103 2575 1009.11 2650.89 933 2744.5 933 2838.11 933 2914 1009.11 2914 1103Z" fill="#FFFFFF" fill-rule="evenodd"/><path d="M2905.98 1101.34C2906.01 1101.78 2906.01 1102.22 2905.98 1102.66 2905.98 1191.21 2834.13 1263 2745.5 1263 2656.87 1263 2585.02 1191.21 2585.02 1102.66 2584.99 1102.22 2584.99 1101.78 2585.02 1101.34 2585.02 1012.79 2656.87 941 2745.5 941 2834.13 941 2905.98 1012.79 2905.98 1101.34Z" fill="#FFFFFF" fill-rule="evenodd"/><path d="M2745.97 1265C2656.56 1264.77 2583.93 1192.43 2583 1102.66L2583 1100 2909 1100 2909 1102.66C2908.07 1192.45 2835.41 1264.8 2745.97 1265Z" fill="#80DDF8" fill-rule="evenodd"/><path d="M2744.5 943.625C2832.26 943.625 2903.41 1014.98 2903.41 1103 2903.41 1191.02 2832.26 1262.37 2744.5 1262.37 2656.74 1262.37 2585.59 1191.02 2585.59 1103 2585.59 1014.98 2656.74 943.625 2744.5 943.625M2744.5 933C2650.89 933 2575 1009.11 2575 1103 2575 1196.89 2650.89 1273 2744.5 1273 2838.11 1273 2914 1196.89 2914 1103 2914 1009.11 2838.11 933 2744.5 933Z" fill="#00BBF1" fill-rule="evenodd"/><path d="M2744.5 943.625C2774.71 943.625 2808.42 1009.07 2808.42 1103 2808.42 1196.92 2774.71 1262.37 2744.5 1262.37 2714.29 1262.37 2680.58 1196.92 2680.58 1103 2680.58 1009.07 2714.29 943.625 2744.5 943.625M2744.5 933C2703.33 933 2670 1009.13 2670 1103 2670 1196.87 2703.33 1273 2744.5 1273 2785.67 1273 2819 1196.87 2819 1103 2819 1009.13 2785.67 933 2744.5 933Z" fill="#00BBF1" fill-rule="evenodd"/><path d="M2882.59 1012.71C2858.02 1020.09 2805.29 1025.23 2744.17 1025.23 2683.05 1025.23 2629.2 1019.93 2605.01 1012.5M2604.96 1189.5C2627.98 1182.02 2681.83 1176.77 2744.65 1176.77 2805.87 1176.77 2858.66 1181.75 2882.59 1188.97M2580.5 1102.91 2911.5 1102.91" stroke="#00BBF1" stroke-width="8.80866" stroke-miterlimit="8" fill="none" fill-rule="evenodd"/><path d="M2958 1195.5C2958 1723.18 2173.6 2156.03 1184.02 2174.41" stroke="#5FCBEF" stroke-width="27.5" stroke-linecap="round" stroke-linejoin="round" stroke-miterlimit="10" fill="none" fill-rule="evenodd"/></g></svg>