<svg width="2898" height="1117" xmlns="http://www.w3.org/2000/svg" xmlns:xlink="http://www.w3.org/1999/xlink" overflow="hidden"><defs><clipPath id="clip0"><rect x="400" y="628" width="2898" height="1117"/></clipPath><clipPath id="clip1"><rect x="400" y="628" width="1117" height="1117"/></clipPath><clipPath id="clip2"><rect x="400" y="628" width="1117" height="1117"/></clipPath><clipPath id="clip3"><rect x="400" y="628" width="1117" height="1117"/></clipPath></defs><g clip-path="url(#clip0)" transform="translate(-400 -628)"><rect x="601" y="877" width="715" height="480" fill="#80DDF8"/><g clip-path="url(#clip1)"><g clip-path="url(#clip2)"><g clip-path="url(#clip3)"><path d="M1284.29 1326.12 632.708 1326.12 632.708 930.521 1284.29 930.521 1284.29 1326.12ZM1354.1 907.25C1354.1 881.652 1333.16 860.708 1307.56 860.708L609.438 860.708C583.84 860.708 562.896 881.652 562.896 907.25L562.896 1395.94 1354.1 1395.94 1354.1 907.25Z" fill="#00BBF1"/><path d="M1028.31 1442.48 1028.31 1454.11C1028.31 1461.1 1023.66 1465.75 1016.68 1465.75L900.323 1465.75C893.342 1465.75 888.688 1461.1 888.688 1454.11L888.688 1442.48 423.271 1442.48 423.271 1465.75C423.271 1491.35 444.215 1512.29 469.813 1512.29L1447.19 1512.29C1472.79 1512.29 1493.73 1491.35 1493.73 1465.75L1493.73 1442.48 1028.31 1442.48Z" fill="#00BBF1"/></g></g></g><path d="M2158 1019 2197 1019 2197 1071 2158 1071Z" fill="#E25A1C" fill-rule="evenodd"/><path d="M2158 1096 2197 1096 2197 1135 2158 1135Z" fill="#E25A1C" fill-rule="evenodd"/><path d="M2223 1096 2409 1096 2409 1135 2223 1135Z" fill="#E25A1C" fill-rule="evenodd"/><path d="M2360.01 917 1994.99 917C1982.29 917 1972 927.218 1972 939.823L1972 996.178C1972 1008.78 1982.29 1019 1994.99 1019L2360.01 1019C2372.71 1019 2383 1008.78 2383 996.178L2383 939.823C2383 927.218 2372.71 917 2360.01 917ZM2036.22 980.75C2029.12 980.75 2023.37 975.042 2023.37 968 2023.37 960.959 2029.12 955.25 2036.22 955.25 2043.31 955.25 2049.06 960.959 2049.06 968 2049.06 975.042 2043.31 980.75 2036.22 980.75ZM2100.44 980.75C2093.34 980.75 2087.59 975.042 2087.59 968 2087.59 960.959 2093.34 955.25 2100.44 955.25 2107.53 955.25 2113.28 960.959 2113.28 968 2113.28 975.042 2107.53 980.75 2100.44 980.75ZM2164.66 980.75C2157.56 980.75 2151.81 975.042 2151.81 968 2151.81 960.959 2157.56 955.25 2164.66 955.25 2171.75 955.25 2177.5 960.959 2177.5 968 2177.5 975.042 2171.75 980.75 2164.66 980.75Z" fill="#00BBF1" fill-rule="evenodd"/><path d="M2360.01 788 1994.99 788C1982.29 788 1972 798.318 1972 811.046L1972 867.954C1972 880.682 1982.29 891.001 1994.99 891.001L2360.01 891.001C2372.71 891.001 2383 880.682 2383 867.954L2383 811.046C2383 798.318 2372.71 788 2360.01 788ZM2036.22 852.375C2029.12 852.375 2023.37 846.611 2023.37 839.5 2023.37 832.39 2029.12 826.625 2036.22 826.625 2043.31 826.625 2049.06 832.39 2049.06 839.5 2049.06 846.611 2043.31 852.375 2036.22 852.375ZM2100.44 852.375C2093.34 852.375 2087.59 846.611 2087.59 839.5 2087.59 832.39 2093.34 826.625 2100.44 826.625 2107.53 826.625 2113.28 832.39 2113.28 839.5 2113.28 846.611 2107.53 852.375 2100.44 852.375ZM2164.66 852.375C2157.56 852.375 2151.81 846.611 2151.81 839.5 2151.81 832.39 2157.56 826.625 2164.66 826.625 2171.75 826.625 2177.5 832.39 2177.5 839.5 2177.5 846.611 2171.75 852.375 2164.66 852.375Z" fill="#00BBF1" fill-rule="evenodd"/><path d="M2360.01 660 1994.99 660C1982.29 660 1972 670.318 1972 683.046L1972 739.954C1972 752.683 1982.29 763.001 1994.99 763.001L2360.01 763.001C2372.71 763.001 2383 752.683 2383 739.954L2383 683.046C2383 670.318 2372.71 660 2360.01 660ZM2036.22 724.375C2029.12 724.375 2023.37 718.611 2023.37 711.5 2023.37 704.39 2029.12 698.625 2036.22 698.625 2043.31 698.625 2049.06 704.39 2049.06 711.5 2049.06 718.611 2043.31 724.375 2036.22 724.375ZM2100.44 724.375C2093.34 724.375 2087.59 718.611 2087.59 711.5 2087.59 704.39 2093.34 698.625 2100.44 698.625 2107.53 698.625 2113.28 704.39 2113.28 711.5 2113.28 718.611 2107.53 724.375 2100.44 724.375ZM2164.66 724.375C2157.56 724.375 2151.81 718.611 2151.81 711.5 2151.81 704.39 2157.56 698.625 2164.66 698.625 2171.75 698.625 2177.5 704.39 2177.5 711.5 2177.5 718.611 2171.75 724.375 2164.66 724.375Z" fill="#00BBF1" fill-rule="evenodd"/><path d="M2618 1019 2656 1019 2656 1071 2618 1071Z" fill="#E25A1C" fill-rule="evenodd"/><path d="M2618 1096 2656 1096 2656 1135 2618 1135Z" fill="#E25A1C" fill-rule="evenodd"/><path d="M2682 1096 2868 1096 2868 1135 2682 1135Z" fill="#E25A1C" fill-rule="evenodd"/><path d="M2406 1096 2592 1096 2592 1135 2406 1135Z" fill="#E25A1C" fill-rule="evenodd"/><path d="M2820.01 917 2454.99 917C2442.29 917 2432 927.218 2432 939.823L2432 996.178C2432 1008.78 2442.29 1019 2454.99 1019L2820.01 1019C2832.71 1019 2843 1008.78 2843 996.178L2843 939.823C2843 927.218 2832.71 917 2820.01 917ZM2496.22 980.75C2489.12 980.75 2483.37 975.042 2483.37 968 2483.37 960.959 2489.12 955.25 2496.22 955.25 2503.31 955.25 2509.06 960.959 2509.06 968 2509.06 975.042 2503.31 980.75 2496.22 980.75ZM2560.44 980.75C2553.34 980.75 2547.59 975.042 2547.59 968 2547.59 960.959 2553.34 955.25 2560.44 955.25 2567.53 955.25 2573.28 960.959 2573.28 968 2573.28 975.042 2567.53 980.75 2560.44 980.75ZM2624.66 980.75C2617.56 980.75 2611.81 975.042 2611.81 968 2611.81 960.959 2617.56 955.25 2624.66 955.25 2631.75 955.25 2637.5 960.959 2637.5 968 2637.5 975.042 2631.75 980.75 2624.66 980.75Z" fill="#00BBF1" fill-rule="evenodd"/><path d="M2820.01 788 2454.99 788C2442.29 788 2432 798.318 2432 811.046L2432 867.954C2432 880.682 2442.29 891.001 2454.99 891.001L2820.01 891.001C2832.71 891.001 2843 880.682 2843 867.954L2843 811.046C2843 798.318 2832.71 788 2820.01 788ZM2496.22 852.375C2489.12 852.375 2483.37 846.611 2483.37 839.5 2483.37 832.39 2489.12 826.625 2496.22 826.625 2503.31 826.625 2509.06 832.39 2509.06 839.5 2509.06 846.611 2503.31 852.375 2496.22 852.375ZM2560.44 852.375C2553.34 852.375 2547.59 846.611 2547.59 839.5 2547.59 832.39 2553.34 826.625 2560.44 826.625 2567.53 826.625 2573.28 832.39 2573.28 839.5 2573.28 846.611 2567.53 852.375 2560.44 852.375ZM2624.66 852.375C2617.56 852.375 2611.81 846.611 2611.81 839.5 2611.81 832.39 2617.56 826.625 2624.66 826.625 2631.75 826.625 2637.5 832.39 2637.5 839.5 2637.5 846.611 2631.75 852.375 2624.66 852.375Z" fill="#00BBF1" fill-rule="evenodd"/><path d="M2820.01 660 2454.99 660C2442.29 660 2432 670.318 2432 683.046L2432 739.954C2432 752.683 2442.29 763.001 2454.99 763.001L2820.01 763.001C2832.71 763.001 2843 752.683 2843 739.954L2843 683.046C2843 670.318 2832.71 660 2820.01 660ZM2496.22 724.375C2489.12 724.375 2483.37 718.611 2483.37 711.5 2483.37 704.39 2489.12 698.625 2496.22 698.625 2503.31 698.625 2509.06 704.39 2509.06 711.5 2509.06 718.611 2503.31 724.375 2496.22 724.375ZM2560.44 724.375C2553.34 724.375 2547.59 718.611 2547.59 711.5 2547.59 704.39 2553.34 698.625 2560.44 698.625 2567.53 698.625 2573.28 704.39 2573.28 711.5 2573.28 718.611 2567.53 724.375 2560.44 724.375ZM2624.66 724.375C2617.56 724.375 2611.81 718.611 2611.81 711.5 2611.81 704.39 2617.56 698.625 2624.66 698.625 2631.75 698.625 2637.5 704.39 2637.5 711.5 2637.5 718.611 2631.75 724.375 2624.66 724.375Z" fill="#00BBF1" fill-rule="evenodd"/><path d="M3074 1019 3112 1019 3112 1071 3074 1071Z" fill="#E25A1C" fill-rule="evenodd"/><path d="M3074 1096 3112 1096 3112 1135 3074 1135Z" fill="#E25A1C" fill-rule="evenodd"/><path d="M2862 1096 3048 1096 3048 1135 2862 1135Z" fill="#E25A1C" fill-rule="evenodd"/><path d="M3275.07 917 2910.93 917C2898.27 917 2888 927.218 2888 939.823L2888 996.178C2888 1008.78 2898.27 1019 2910.93 1019L3275.07 1019C3287.73 1019 3298 1008.78 3298 996.178L3298 939.823C3298 927.218 3287.73 917 3275.07 917ZM2952.06 980.75C2944.99 980.75 2939.25 975.042 2939.25 968 2939.25 960.959 2944.99 955.25 2952.06 955.25 2959.14 955.25 2964.87 960.959 2964.87 968 2964.87 975.042 2959.14 980.75 2952.06 980.75ZM3016.12 980.75C3009.05 980.75 3003.31 975.042 3003.31 968 3003.31 960.959 3009.05 955.25 3016.12 955.25 3023.2 955.25 3028.94 960.959 3028.94 968 3028.94 975.042 3023.2 980.75 3016.12 980.75ZM3080.19 980.75C3073.11 980.75 3067.38 975.042 3067.38 968 3067.38 960.959 3073.11 955.25 3080.19 955.25 3087.26 955.25 3093 960.959 3093 968 3093 975.042 3087.26 980.75 3080.19 980.75Z" fill="#00BBF1" fill-rule="evenodd"/><path d="M3275.07 788 2910.93 788C2898.27 788 2888 798.318 2888 811.046L2888 867.954C2888 880.682 2898.27 891.001 2910.93 891.001L3275.07 891.001C3287.73 891.001 3298 880.682 3298 867.954L3298 811.046C3298 798.318 3287.73 788 3275.07 788ZM2952.06 852.375C2944.99 852.375 2939.25 846.611 2939.25 839.5 2939.25 832.39 2944.99 826.625 2952.06 826.625 2959.14 826.625 2964.87 832.39 2964.87 839.5 2964.87 846.611 2959.14 852.375 2952.06 852.375ZM3016.12 852.375C3009.05 852.375 3003.31 846.611 3003.31 839.5 3003.31 832.39 3009.05 826.625 3016.12 826.625 3023.2 826.625 3028.94 832.39 3028.94 839.5 3028.94 846.611 3023.2 852.375 3016.12 852.375ZM3080.19 852.375C3073.11 852.375 3067.38 846.611 3067.38 839.5 3067.38 832.39 3073.11 826.625 3080.19 826.625 3087.26 826.625 3093 832.39 3093 839.5 3093 846.611 3087.26 852.375 3080.19 852.375Z" fill="#00BBF1" fill-rule="evenodd"/><path d="M3275.07 660 2910.93 660C2898.27 660 2888 670.318 2888 683.046L2888 739.954C2888 752.683 2898.27 763.001 2910.93 763.001L3275.07 763.001C3287.73 763.001 3298 752.683 3298 739.954L3298 683.046C3298 670.318 3287.73 660 3275.07 660ZM2952.06 724.375C2944.99 724.375 2939.25 718.611 2939.25 711.5 2939.25 704.39 2944.99 698.625 2952.06 698.625 2959.14 698.625 2964.87 704.39 2964.87 711.5 2964.87 718.611 2959.14 724.375 2952.06 724.375ZM3016.12 724.375C3009.05 724.375 3003.31 718.611 3003.31 711.5 3003.31 704.39 3009.05 698.625 3016.12 698.625 3023.2 698.625 3028.94 704.39 3028.94 711.5 3028.94 718.611 3023.2 724.375 3016.12 724.375ZM3080.19 724.375C3073.11 724.375 3067.38 718.611 3067.38 711.5 3067.38 704.39 3073.11 698.625 3080.19 698.625 3087.26 698.625 3093 704.39 3093 711.5 3093 718.611 3087.26 724.375 3080.19 724.375Z" fill="#00BBF1" fill-rule="evenodd"/><path d="M3112 1212 3074 1212 3074 1161 3112 1161Z" fill="#E25A1C" fill-rule="evenodd"/><path d="M3112 1135 3074 1135 3074 1096 3112 1096Z" fill="#E25A1C" fill-rule="evenodd"/><path d="M3048 1135 2862 1135 2862 1096 3048 1096Z" fill="#E25A1C" fill-rule="evenodd"/><path d="M2653 1212 2614 1212 2614 1161 2653 1161Z" fill="#E25A1C" fill-rule="evenodd"/><path d="M2653 1135 2614 1135 2614 1096 2653 1096Z" fill="#E25A1C" fill-rule="evenodd"/><path d="M2588 1135 2402 1135 2402 1096 2588 1096Z" fill="#E25A1C" fill-rule="evenodd"/><path d="M2864 1135 2678 1135 2678 1096 2864 1096Z" fill="#E25A1C" fill-rule="evenodd"/><path d="M2197 1212 2158 1212 2158 1161 2197 1161Z" fill="#E25A1C" fill-rule="evenodd"/><path d="M2197 1135 2158 1135 2158 1096 2197 1096Z" fill="#E25A1C" fill-rule="evenodd"/><path d="M2409 1135 2223 1135 2223 1096 2409 1096Z" fill="#E25A1C" fill-rule="evenodd"/><path d="M388.01 0 22.9901 0C10.293 0 0 10.3181 0 23.0461L0 79.9542C0 92.6823 10.293 103 22.9901 103L388.01 103C400.707 103 411 92.6823 411 79.9542L411 23.0461C411 10.3181 400.707 0 388.01 0ZM64.2186 64.375C57.1249 64.375 51.3748 58.6108 51.3748 51.4999 51.3748 44.3895 57.1249 38.6254 64.2186 38.6254 71.3123 38.6254 77.0624 44.3895 77.0624 51.4999 77.0624 58.6108 71.3123 64.375 64.2186 64.375ZM128.438 64.375C121.344 64.375 115.594 58.6108 115.594 51.4999 115.594 44.3895 121.344 38.6254 128.438 38.6254 135.531 38.6254 141.281 44.3895 141.281 51.4999 141.281 58.6108 135.531 64.375 128.438 64.375ZM192.656 64.375C185.563 64.375 179.813 58.6108 179.813 51.4999 179.813 44.3895 185.563 38.6254 192.656 38.6254 199.75 38.6254 205.5 44.3895 205.5 51.4999 205.5 58.6108 199.75 64.375 192.656 64.375Z" fill="#00BBF1" fill-rule="evenodd" transform="matrix(1 -1.22465e-16 -1.22465e-16 -1 1972 1315)"/><path d="M388.01 0 22.9901 0C10.293 0 0 10.3181 0 23.0462L0 79.9545C0 92.6826 10.293 103.001 22.9901 103.001L388.01 103.001C400.707 103.001 411 92.6826 411 79.9545L411 23.0462C411 10.3181 400.707 0 388.01 0ZM64.2186 64.3752C57.1249 64.3752 51.3748 58.611 51.3748 51.5001 51.3748 44.3897 57.1249 38.6255 64.2186 38.6255 71.3123 38.6255 77.0624 44.3897 77.0624 51.5001 77.0624 58.611 71.3123 64.3752 64.2186 64.3752ZM128.438 64.3752C121.344 64.3752 115.594 58.611 115.594 51.5001 115.594 44.3897 121.344 38.6255 128.438 38.6255 135.531 38.6255 141.281 44.3897 141.281 51.5001 141.281 58.611 135.531 64.3752 128.438 64.3752ZM192.656 64.3752C185.563 64.3752 179.813 58.611 179.813 51.5001 179.813 44.3897 185.563 38.6255 192.656 38.6255 199.75 38.6255 205.5 44.3897 205.5 51.5001 205.5 58.611 199.75 64.3752 192.656 64.3752Z" fill="#00BBF1" fill-rule="evenodd" transform="matrix(1 -1.22465e-16 -1.22465e-16 -1 1972 1443)"/><path d="M388.01 0 22.9901 0C10.293 0 0 10.2179 0 22.8225L0 79.1782C0 91.7828 10.293 102.001 22.9901 102.001L388.01 102.001C400.707 102.001 411 91.7828 411 79.1782L411 22.8225C411 10.2179 400.707 0 388.01 0ZM64.2186 63.7502C57.1249 63.7502 51.3748 58.042 51.3748 51 51.3748 43.9587 57.1249 38.2505 64.2186 38.2505 71.3123 38.2505 77.0624 43.9587 77.0624 51 77.0624 58.042 71.3123 63.7502 64.2186 63.7502ZM128.438 63.7502C121.344 63.7502 115.594 58.042 115.594 51 115.594 43.9587 121.344 38.2505 128.438 38.2505 135.531 38.2505 141.281 43.9587 141.281 51 141.281 58.042 135.531 63.7502 128.438 63.7502ZM192.656 63.7502C185.563 63.7502 179.813 58.042 179.813 51 179.813 43.9587 185.563 38.2505 192.656 38.2505 199.75 38.2505 205.5 43.9587 205.5 51 205.5 58.042 199.75 63.7502 192.656 63.7502Z" fill="#00BBF1" fill-rule="evenodd" transform="matrix(1 -1.22465e-16 -1.22465e-16 -1 1972 1571)"/><path d="M388.01 0 22.9902 0C10.293 0 0 10.3181 0 23.0461L0 79.9542C0 92.6823 10.293 103 22.9902 103L388.01 103C400.707 103 411 92.6823 411 79.9542L411 23.0461C411 10.3181 400.707 0 388.01 0ZM64.2186 64.375C57.125 64.375 51.3748 58.6108 51.3748 51.4999 51.3748 44.3895 57.125 38.6254 64.2186 38.6254 71.3123 38.6254 77.0625 44.3895 77.0625 51.4999 77.0625 58.6108 71.3123 64.375 64.2186 64.375ZM128.438 64.375C121.344 64.375 115.594 58.6108 115.594 51.4999 115.594 44.3895 121.344 38.6254 128.438 38.6254 135.531 38.6254 141.281 44.3895 141.281 51.4999 141.281 58.6108 135.531 64.375 128.438 64.375ZM192.657 64.375C185.563 64.375 179.813 58.6108 179.813 51.4999 179.813 44.3895 185.563 38.6254 192.657 38.6254 199.75 38.6254 205.5 44.3895 205.5 51.4999 205.5 58.6108 199.75 64.375 192.657 64.375Z" fill="#00BBF1" fill-rule="evenodd" transform="matrix(1 -1.22465e-16 -1.22465e-16 -1 2432 1315)"/><path d="M388.01 0 22.9902 0C10.293 0 0 10.3181 0 23.0462L0 79.9545C0 92.6826 10.293 103.001 22.9902 103.001L388.01 103.001C400.707 103.001 411 92.6826 411 79.9545L411 23.0462C411 10.3181 400.707 0 388.01 0ZM64.2186 64.3752C57.125 64.3752 51.3748 58.611 51.3748 51.5001 51.3748 44.3897 57.125 38.6255 64.2186 38.6255 71.3123 38.6255 77.0625 44.3897 77.0625 51.5001 77.0625 58.611 71.3123 64.3752 64.2186 64.3752ZM128.438 64.3752C121.344 64.3752 115.594 58.611 115.594 51.5001 115.594 44.3897 121.344 38.6255 128.438 38.6255 135.531 38.6255 141.281 44.3897 141.281 51.5001 141.281 58.611 135.531 64.3752 128.438 64.3752ZM192.657 64.3752C185.563 64.3752 179.813 58.611 179.813 51.5001 179.813 44.3897 185.563 38.6255 192.657 38.6255 199.75 38.6255 205.5 44.3897 205.5 51.5001 205.5 58.611 199.75 64.3752 192.657 64.3752Z" fill="#00BBF1" fill-rule="evenodd" transform="matrix(1 -1.22465e-16 -1.22465e-16 -1 2432 1443)"/><path d="M388.01 0 22.9902 0C10.293 0 0 10.2179 0 22.8225L0 79.1782C0 91.7828 10.293 102.001 22.9902 102.001L388.01 102.001C400.707 102.001 411 91.7828 411 79.1782L411 22.8225C411 10.2179 400.707 0 388.01 0ZM64.2186 63.7502C57.125 63.7502 51.3748 58.042 51.3748 51 51.3748 43.9587 57.125 38.2505 64.2186 38.2505 71.3123 38.2505 77.0625 43.9587 77.0625 51 77.0625 58.042 71.3123 63.7502 64.2186 63.7502ZM128.438 63.7502C121.344 63.7502 115.594 58.042 115.594 51 115.594 43.9587 121.344 38.2505 128.438 38.2505 135.531 38.2505 141.281 43.9587 141.281 51 141.281 58.042 135.531 63.7502 128.438 63.7502ZM192.657 63.7502C185.563 63.7502 179.813 58.042 179.813 51 179.813 43.9587 185.563 38.2505 192.657 38.2505 199.75 38.2505 205.5 43.9587 205.5 51 205.5 58.042 199.75 63.7502 192.657 63.7502Z" fill="#00BBF1" fill-rule="evenodd" transform="matrix(1 -1.22465e-16 -1.22465e-16 -1 2432 1571)"/><path d="M387.066 0 22.9342 0C10.268 0 0 10.3181 0 23.0461L0 79.9542C0 92.6823 10.268 103 22.9342 103L387.066 103C399.732 103 410 92.6823 410 79.9542L410 23.0461C410 10.3181 399.732 0 387.066 0ZM64.0624 64.375C56.986 64.375 51.2498 58.6108 51.2498 51.4999 51.2498 44.3895 56.986 38.6254 64.0624 38.6254 71.1388 38.6254 76.875 44.3895 76.875 51.4999 76.875 58.6108 71.1388 64.375 64.0624 64.375ZM128.125 64.375C121.049 64.375 115.313 58.6108 115.313 51.4999 115.313 44.3895 121.049 38.6254 128.125 38.6254 135.201 38.6254 140.937 44.3895 140.937 51.4999 140.937 58.6108 135.201 64.375 128.125 64.375ZM192.188 64.375C185.111 64.375 179.375 58.6108 179.375 51.4999 179.375 44.3895 185.111 38.6254 192.188 38.6254 199.264 38.6254 205 44.3895 205 51.4999 205 58.6108 199.264 64.375 192.188 64.375Z" fill="#00BBF1" fill-rule="evenodd" transform="matrix(1 -1.22465e-16 -1.22465e-16 -1 2888 1315)"/><path d="M387.066 0 22.9342 0C10.268 0 0 10.3181 0 23.0462L0 79.9545C0 92.6826 10.268 103.001 22.9342 103.001L387.066 103.001C399.732 103.001 410 92.6826 410 79.9545L410 23.0462C410 10.3181 399.732 0 387.066 0ZM64.0624 64.3752C56.986 64.3752 51.2498 58.611 51.2498 51.5001 51.2498 44.3897 56.986 38.6255 64.0624 38.6255 71.1388 38.6255 76.875 44.3897 76.875 51.5001 76.875 58.611 71.1388 64.3752 64.0624 64.3752ZM128.125 64.3752C121.049 64.3752 115.313 58.611 115.313 51.5001 115.313 44.3897 121.049 38.6255 128.125 38.6255 135.201 38.6255 140.937 44.3897 140.937 51.5001 140.937 58.611 135.201 64.3752 128.125 64.3752ZM192.188 64.3752C185.111 64.3752 179.375 58.611 179.375 51.5001 179.375 44.3897 185.111 38.6255 192.188 38.6255 199.264 38.6255 205 44.3897 205 51.5001 205 58.611 199.264 64.3752 192.188 64.3752Z" fill="#00BBF1" fill-rule="evenodd" transform="matrix(1 -1.22465e-16 -1.22465e-16 -1 2888 1443)"/><path d="M387.066 0 22.9342 0C10.268 0 0 10.2179 0 22.8225L0 79.1782C0 91.7828 10.268 102.001 22.9342 102.001L387.066 102.001C399.732 102.001 410 91.7828 410 79.1782L410 22.8225C410 10.2179 399.732 0 387.066 0ZM64.0624 63.7502C56.986 63.7502 51.2498 58.042 51.2498 51 51.2498 43.9587 56.986 38.2505 64.0624 38.2505 71.1388 38.2505 76.875 43.9587 76.875 51 76.875 58.042 71.1388 63.7502 64.0624 63.7502ZM128.125 63.7502C121.049 63.7502 115.313 58.042 115.313 51 115.313 43.9587 121.049 38.2505 128.125 38.2505 135.201 38.2505 140.937 43.9587 140.937 51 140.937 58.042 135.201 63.7502 128.125 63.7502ZM192.188 63.7502C185.111 63.7502 179.375 58.042 179.375 51 179.375 43.9587 185.111 38.2505 192.188 38.2505 199.264 38.2505 205 43.9587 205 51 205 58.042 199.264 63.7502 192.188 63.7502Z" fill="#00BBF1" fill-rule="evenodd" transform="matrix(1 -1.22465e-16 -1.22465e-16 -1 2888 1571)"/><path d="M1435 1121.25 1780.23 1121.25C1787.82 1121.25 1793.98 1127.41 1793.98 1135 1793.98 1142.59 1787.82 1148.75 1780.23 1148.75L1435 1148.75C1427.41 1148.75 1421.25 1142.59 1421.25 1135 1421.25 1127.41 1427.41 1121.25 1435 1121.25ZM1766.48 1093.75 1848.98 1135 1766.48 1176.25Z" fill="#00BBF1"/></g></svg>