<?xml version="1.0" encoding="UTF-8" standalone="no"?>
<svg
   xmlns:dc="http://purl.org/dc/elements/1.1/"
   xmlns:cc="http://creativecommons.org/ns#"
   xmlns:rdf="http://www.w3.org/1999/02/22-rdf-syntax-ns#"
   xmlns:svg="http://www.w3.org/2000/svg"
   xmlns="http://www.w3.org/2000/svg"
   xmlns:sodipodi="http://sodipodi.sourceforge.net/DTD/sodipodi-0.dtd"
   xmlns:inkscape="http://www.inkscape.org/namespaces/inkscape"
   width="256.07434"
   height="200"
   overflow="hidden"
   version="1.1"
   id="svg2155"
   sodipodi:docname="scalability.svg"
   style="overflow:hidden"
   inkscape:version="0.92.4 (5da689c313, 2019-01-14)">
  <metadata
     id="metadata2159">
    <rdf:RDF>
      <cc:Work
         rdf:about="">
        <dc:format>image/svg+xml</dc:format>
        <dc:type
           rdf:resource="http://purl.org/dc/dcmitype/StillImage" />
        <dc:title></dc:title>
      </cc:Work>
    </rdf:RDF>
  </metadata>
  <sodipodi:namedview
     pagecolor="#ffffff"
     bordercolor="#666666"
     borderopacity="1"
     objecttolerance="10"
     gridtolerance="10"
     guidetolerance="10"
     inkscape:pageopacity="0"
     inkscape:pageshadow="2"
     inkscape:window-width="3440"
     inkscape:window-height="1346"
     id="namedview2157"
     showgrid="false"
     inkscape:zoom="3.698335"
     inkscape:cx="113.08712"
     inkscape:cy="114.36123"
     inkscape:window-x="-11"
     inkscape:window-y="-11"
     inkscape:window-maximized="1"
     inkscape:current-layer="svg2155" />
  <defs
     id="defs2095">
    <clipPath
       id="clip0">
      <rect
         x="2145"
         y="687"
         width="1307"
         height="1021"
         id="rect2083" />
    </clipPath>
    <clipPath
       id="clip1">
      <rect
         x="2145"
         y="687"
         width="633"
         height="633"
         id="rect2086" />
    </clipPath>
    <clipPath
       id="clip2">
      <rect
         x="2145"
         y="687"
         width="633"
         height="633"
         id="rect2089" />
    </clipPath>
    <clipPath
       id="clip3">
      <rect
         x="2145"
         y="687"
         width="633"
         height="633"
         id="rect2092" />
    </clipPath>
  </defs>
  <g
     clip-path="url(#clip0)"
     transform="matrix(0.19792267,0,0,0.19792267,-427.15473,-138.05191)"
     id="g2153">
    <rect
       x="2266"
       y="853"
       width="405"
       height="245"
       id="rect2097"
       style="fill:#80ddf8" />
    <g
       clip-path="url(#clip1)"
       id="g2107">
      <g
         clip-path="url(#clip2)"
         id="g2105">
        <g
           clip-path="url(#clip3)"
           id="g2103">
          <path
             d="M 2646.12,1082.62 H 2276.88 V 858.438 h 369.24 z m 39.57,-237.37 c 0,-14.506 -11.87,-26.375 -26.38,-26.375 h -395.62 c -14.51,0 -26.38,11.869 -26.38,26.375 v 276.94 h 448.38 z"
             id="path2099"
             inkscape:connector-curvature="0"
             style="fill:#00bbf1" />
          <path
             d="m 2501.06,1148.56 v 6.6 c 0,3.95 -2.64,6.59 -6.59,6.59 h -65.94 c -3.96,0 -6.59,-2.64 -6.59,-6.59 v -6.6 h -263.75 v 13.19 c 0,14.51 11.87,26.37 26.37,26.37 h 553.88 c 14.5,0 26.37,-11.86 26.37,-26.37 v -13.19 z"
             id="path2101"
             inkscape:connector-curvature="0"
             style="fill:#00bbf1" />
        </g>
      </g>
    </g>
    <path
       d="m 3105,1257 h 24 v 32 h -24 z"
       id="path2109"
       inkscape:connector-curvature="0"
       style="fill:#e25a1c;fill-rule:evenodd" />
    <path
       d="m 3105,1305 h 24 v 24 h -24 z"
       id="path2111"
       inkscape:connector-curvature="0"
       style="fill:#e25a1c;fill-rule:evenodd" />
    <path
       d="m 3145,1305 h 116 v 24 h -116 z"
       id="path2113"
       inkscape:connector-curvature="0"
       style="fill:#e25a1c;fill-rule:evenodd" />
    <path
       d="m 2974,1305 h 115 v 24 h -115 z"
       id="path2115"
       inkscape:connector-curvature="0"
       style="fill:#e25a1c;fill-rule:evenodd" />
    <path
       d="m 3230.74,1194 h -226.48 c -7.87,0 -14.26,6.31 -14.26,14.1 v 34.8 c 0,7.79 6.39,14.1 14.26,14.1 h 226.48 c 7.87,0 14.26,-6.31 14.26,-14.1 v -34.8 c 0,-7.79 -6.39,-14.1 -14.26,-14.1 z m -200.9,39.38 c -4.4,0 -7.97,-3.53 -7.97,-7.88 0,-4.35 3.57,-7.87 7.97,-7.87 4.4,0 7.97,3.52 7.97,7.87 0,4.35 -3.57,7.88 -7.97,7.88 z m 39.85,0 c -4.4,0 -7.97,-3.53 -7.97,-7.88 0,-4.35 3.57,-7.87 7.97,-7.87 4.4,0 7.97,3.52 7.97,7.87 0,4.35 -3.57,7.88 -7.97,7.88 z m 39.84,0 c -4.4,0 -7.97,-3.53 -7.97,-7.88 0,-4.35 3.57,-7.87 7.97,-7.87 4.4,0 7.97,3.52 7.97,7.87 0,4.35 -3.57,7.88 -7.97,7.88 z"
       id="path2117"
       inkscape:connector-curvature="0"
       style="fill:#00bbf1;fill-rule:evenodd" />
    <path
       d="m 3230.74,1114 h -226.48 c -7.87,0 -14.26,6.41 -14.26,14.32 v 35.36 c 0,7.91 6.39,14.32 14.26,14.32 h 226.48 c 7.87,0 14.26,-6.41 14.26,-14.32 v -35.36 c 0,-7.91 -6.39,-14.32 -14.26,-14.32 z m -200.9,40 c -4.4,0 -7.97,-3.58 -7.97,-8 0,-4.42 3.57,-8 7.97,-8 4.4,0 7.97,3.58 7.97,8 0,4.42 -3.57,8 -7.97,8 z m 39.85,0 c -4.4,0 -7.97,-3.58 -7.97,-8 0,-4.42 3.57,-8 7.97,-8 4.4,0 7.97,3.58 7.97,8 0,4.42 -3.57,8 -7.97,8 z m 39.84,0 c -4.4,0 -7.97,-3.58 -7.97,-8 0,-4.42 3.57,-8 7.97,-8 4.4,0 7.97,3.58 7.97,8 0,4.42 -3.57,8 -7.97,8 z"
       id="path2119"
       inkscape:connector-curvature="0"
       style="fill:#00bbf1;fill-rule:evenodd" />
    <path
       d="m 3230.74,1034 h -226.48 c -7.87,0 -14.26,6.41 -14.26,14.32 v 35.36 c 0,7.91 6.39,14.32 14.26,14.32 h 226.48 c 7.87,0 14.26,-6.41 14.26,-14.32 v -35.36 c 0,-7.91 -6.39,-14.32 -14.26,-14.32 z m -200.9,40 c -4.4,0 -7.97,-3.58 -7.97,-8 0,-4.42 3.57,-8 7.97,-8 4.4,0 7.97,3.58 7.97,8 0,4.42 -3.57,8 -7.97,8 z m 39.85,0 c -4.4,0 -7.97,-3.58 -7.97,-8 0,-4.42 3.57,-8 7.97,-8 4.4,0 7.97,3.58 7.97,8 0,4.42 -3.57,8 -7.97,8 z m 39.84,0 c -4.4,0 -7.97,-3.58 -7.97,-8 0,-4.42 3.57,-8 7.97,-8 4.4,0 7.97,3.58 7.97,8 0,4.42 -3.57,8 -7.97,8 z"
       id="path2121"
       inkscape:connector-curvature="0"
       style="fill:#00bbf1;fill-rule:evenodd" />
    <path
       d="m 2914,1637 h 24 v 31 h -24 z"
       id="path2123"
       inkscape:connector-curvature="0"
       style="fill:#e25a1c;fill-rule:evenodd" />
    <path
       d="m 2914,1684 h 24 v 24 h -24 z"
       id="path2125"
       inkscape:connector-curvature="0"
       style="fill:#e25a1c;fill-rule:evenodd" />
    <path
       d="m 2954,1684 h 115 v 24 h -115 z"
       id="path2127"
       inkscape:connector-curvature="0"
       style="fill:#e25a1c;fill-rule:evenodd" />
    <path
       d="m 2783,1684 h 115 v 24 h -115 z"
       id="path2129"
       inkscape:connector-curvature="0"
       style="fill:#e25a1c;fill-rule:evenodd" />
    <path
       d="m 3039.74,1573 h -226.48 c -7.87,0 -14.26,6.41 -14.26,14.32 v 35.36 c 0,7.91 6.39,14.32 14.26,14.32 h 226.48 c 7.87,0 14.26,-6.41 14.26,-14.32 v -35.36 c 0,-7.91 -6.39,-14.32 -14.26,-14.32 z m -200.9,40 c -4.4,0 -7.96,-3.58 -7.96,-8 0,-4.42 3.56,-8 7.96,-8 4.41,0 7.97,3.58 7.97,8 0,4.42 -3.56,8 -7.97,8 z m 39.85,0 c -4.4,0 -7.97,-3.58 -7.97,-8 0,-4.42 3.57,-8 7.97,-8 4.4,0 7.97,3.58 7.97,8 0,4.42 -3.57,8 -7.97,8 z m 39.84,0 c -4.4,0 -7.97,-3.58 -7.97,-8 0,-4.42 3.57,-8 7.97,-8 4.4,0 7.97,3.58 7.97,8 0,4.42 -3.57,8 -7.97,8 z"
       id="path2131"
       inkscape:connector-curvature="0"
       style="fill:#00bbf1;fill-rule:evenodd" />
    <path
       d="m 3039.74,1493 h -226.48 c -7.87,0 -14.26,6.41 -14.26,14.32 v 35.36 c 0,7.91 6.39,14.32 14.26,14.32 h 226.48 c 7.87,0 14.26,-6.41 14.26,-14.32 v -35.36 c 0,-7.91 -6.39,-14.32 -14.26,-14.32 z m -200.9,40 c -4.4,0 -7.96,-3.58 -7.96,-8 0,-4.42 3.56,-8 7.96,-8 4.41,0 7.97,3.58 7.97,8 0,4.42 -3.56,8 -7.97,8 z m 39.85,0 c -4.4,0 -7.97,-3.58 -7.97,-8 0,-4.42 3.57,-8 7.97,-8 4.4,0 7.97,3.58 7.97,8 0,4.42 -3.57,8 -7.97,8 z m 39.84,0 c -4.4,0 -7.97,-3.58 -7.97,-8 0,-4.42 3.57,-8 7.97,-8 4.4,0 7.97,3.58 7.97,8 0,4.42 -3.57,8 -7.97,8 z"
       id="path2133"
       inkscape:connector-curvature="0"
       style="fill:#00bbf1;fill-rule:evenodd" />
    <path
       d="m 3039.74,1414 h -226.48 c -7.87,0 -14.26,6.31 -14.26,14.1 v 34.8 c 0,7.79 6.39,14.1 14.26,14.1 h 226.48 c 7.87,0 14.26,-6.31 14.26,-14.1 v -34.8 c 0,-7.79 -6.39,-14.1 -14.26,-14.1 z m -200.9,39.38 c -4.4,0 -7.96,-3.53 -7.96,-7.88 0,-4.35 3.56,-7.87 7.96,-7.87 4.41,0 7.97,3.52 7.97,7.87 0,4.35 -3.56,7.88 -7.97,7.88 z m 39.85,0 c -4.4,0 -7.97,-3.53 -7.97,-7.88 0,-4.35 3.57,-7.87 7.97,-7.87 4.4,0 7.97,3.52 7.97,7.87 0,4.35 -3.57,7.88 -7.97,7.88 z m 39.84,0 c -4.4,0 -7.97,-3.53 -7.97,-7.88 0,-4.35 3.57,-7.87 7.97,-7.87 4.4,0 7.97,3.52 7.97,7.87 0,4.35 -3.57,7.88 -7.97,7.88 z"
       id="path2135"
       inkscape:connector-curvature="0"
       style="fill:#00bbf1;fill-rule:evenodd" />
    <path
       d="m 3296,1634 h 24 v 31 h -24 z"
       id="path2137"
       inkscape:connector-curvature="0"
       style="fill:#e25a1c;fill-rule:evenodd" />
    <path
       d="m 3296,1681 h 24 v 24 h -24 z"
       id="path2139"
       inkscape:connector-curvature="0"
       style="fill:#e25a1c;fill-rule:evenodd" />
    <path
       d="m 3336,1681 h 116 v 24 h -116 z"
       id="path2141"
       inkscape:connector-curvature="0"
       style="fill:#e25a1c;fill-rule:evenodd" />
    <path
       d="m 3165,1681 h 116 v 24 h -116 z"
       id="path2143"
       inkscape:connector-curvature="0"
       style="fill:#e25a1c;fill-rule:evenodd" />
    <path
       d="m 3421.74,1570 h -226.48 c -7.87,0 -14.26,6.41 -14.26,14.32 v 35.36 c 0,7.91 6.39,14.32 14.26,14.32 h 226.48 c 7.87,0 14.26,-6.41 14.26,-14.32 v -35.36 c 0,-7.91 -6.39,-14.32 -14.26,-14.32 z m -200.9,40 c -4.4,0 -7.97,-3.58 -7.97,-8 0,-4.42 3.57,-8 7.97,-8 4.4,0 7.97,3.58 7.97,8 0,4.42 -3.57,8 -7.97,8 z m 39.85,0 c -4.4,0 -7.97,-3.58 -7.97,-8 0,-4.42 3.57,-8 7.97,-8 4.4,0 7.97,3.58 7.97,8 0,4.42 -3.57,8 -7.97,8 z m 39.84,0 c -4.4,0 -7.97,-3.58 -7.97,-8 0,-4.42 3.57,-8 7.97,-8 4.4,0 7.97,3.58 7.97,8 0,4.42 -3.57,8 -7.97,8 z"
       id="path2145"
       inkscape:connector-curvature="0"
       style="fill:#00bbf1;fill-rule:evenodd" />
    <path
       d="m 3421.74,1490 h -226.48 c -7.87,0 -14.26,6.41 -14.26,14.32 v 35.36 c 0,7.91 6.39,14.32 14.26,14.32 h 226.48 c 7.87,0 14.26,-6.41 14.26,-14.32 v -35.36 c 0,-7.91 -6.39,-14.32 -14.26,-14.32 z m -200.9,40 c -4.4,0 -7.97,-3.58 -7.97,-8 0,-4.42 3.57,-8 7.97,-8 4.4,0 7.97,3.58 7.97,8 0,4.42 -3.57,8 -7.97,8 z m 39.85,0 c -4.4,0 -7.97,-3.58 -7.97,-8 0,-4.42 3.57,-8 7.97,-8 4.4,0 7.97,3.58 7.97,8 0,4.42 -3.57,8 -7.97,8 z m 39.84,0 c -4.4,0 -7.97,-3.58 -7.97,-8 0,-4.42 3.57,-8 7.97,-8 4.4,0 7.97,3.58 7.97,8 0,4.42 -3.57,8 -7.97,8 z"
       id="path2147"
       inkscape:connector-curvature="0"
       style="fill:#00bbf1;fill-rule:evenodd" />
    <path
       d="m 3421.74,1411 h -226.48 c -7.87,0 -14.26,6.31 -14.26,14.1 v 34.8 c 0,7.79 6.39,14.1 14.26,14.1 h 226.48 c 7.87,0 14.26,-6.31 14.26,-14.1 v -34.8 c 0,-7.79 -6.39,-14.1 -14.26,-14.1 z m -200.9,39.38 c -4.4,0 -7.97,-3.53 -7.97,-7.88 0,-4.35 3.57,-7.87 7.97,-7.87 4.4,0 7.97,3.52 7.97,7.87 0,4.35 -3.57,7.88 -7.97,7.88 z m 39.85,0 c -4.4,0 -7.97,-3.53 -7.97,-7.88 0,-4.35 3.57,-7.87 7.97,-7.87 4.4,0 7.97,3.52 7.97,7.87 0,4.35 -3.57,7.88 -7.97,7.88 z m 39.84,0 c -4.4,0 -7.97,-3.53 -7.97,-7.88 0,-4.35 3.57,-7.87 7.97,-7.87 4.4,0 7.97,3.52 7.97,7.87 0,4.35 -3.57,7.88 -7.97,7.88 z"
       id="path2149"
       inkscape:connector-curvature="0"
       style="fill:#00bbf1;fill-rule:evenodd" />
    <path
       d="M 0,0 825,965.291"
       stroke-miterlimit="10"
       transform="matrix(1,0,0,-1,2393,1680.29)"
       id="path2151"
       inkscape:connector-curvature="0"
       style="fill:none;fill-rule:evenodd;stroke:#e25a1c;stroke-width:27.5;stroke-linecap:round;stroke-linejoin:round;stroke-miterlimit:10" />
  </g>
</svg>
