<?xml version="1.0" encoding="UTF-8" standalone="no"?>
<svg
   xmlns:dc="http://purl.org/dc/elements/1.1/"
   xmlns:cc="http://creativecommons.org/ns#"
   xmlns:rdf="http://www.w3.org/1999/02/22-rdf-syntax-ns#"
   xmlns:svg="http://www.w3.org/2000/svg"
   xmlns="http://www.w3.org/2000/svg"
   xmlns:sodipodi="http://sodipodi.sourceforge.net/DTD/sodipodi-0.dtd"
   xmlns:inkscape="http://www.inkscape.org/namespaces/inkscape"
   width="184.065"
   height="200"
   overflow="hidden"
   version="1.1"
   id="svg1453"
   sodipodi:docname="simplicity.svg"
   style="overflow:hidden"
   inkscape:version="0.92.4 (5da689c313, 2019-01-14)">
  <metadata
     id="metadata1457">
    <rdf:RDF>
      <cc:Work
         rdf:about="">
        <dc:format>image/svg+xml</dc:format>
        <dc:type
           rdf:resource="http://purl.org/dc/dcmitype/StillImage" />
        <dc:title></dc:title>
      </cc:Work>
    </rdf:RDF>
  </metadata>
  <sodipodi:namedview
     pagecolor="#ffffff"
     bordercolor="#666666"
     borderopacity="1"
     objecttolerance="10"
     gridtolerance="10"
     guidetolerance="10"
     inkscape:pageopacity="0"
     inkscape:pageshadow="2"
     inkscape:window-width="3440"
     inkscape:window-height="1346"
     id="namedview1455"
     showgrid="false"
     inkscape:zoom="1.7811321"
     inkscape:cx="-35.432946"
     inkscape:cy="90.319899"
     inkscape:window-x="-11"
     inkscape:window-y="-11"
     inkscape:window-maximized="1"
     inkscape:current-layer="svg1453" />
  <defs
     id="defs1427">
    <clipPath
       id="clip0">
      <rect
         x="580"
         y="787"
         width="982"
         height="1060"
         id="rect1424" />
    </clipPath>
  </defs>
  <g
     clip-path="url(#clip0)"
     transform="matrix(0.1875,0,0,0.1875,-108.75,-146.3125)"
     id="g1451">
    <path
       d="m 1032,787 h 69 v 174 h -69 z"
       id="path1429"
       inkscape:connector-curvature="0"
       style="fill:#00bbf1;fill-rule:evenodd" />
    <path
       d="m 1352.02,1038.63 86.01,-86.002 36.86,36.86 -86.01,86.002 z"
       id="path1431"
       inkscape:connector-curvature="0"
       style="fill:#00bbf1;fill-rule:evenodd" />
    <path
       d="M 1066.52,1839 C 802.792,1839 589,1624.99 589,1361 c 0,-263.99 213.792,-478 477.52,-478 263.53,-0.174 477.31,213.54 477.48,477.34 0.1,156.7 -76.58,303.48 -205.21,392.79 -79.71,56.1 -174.83,86.1 -272.27,85.87 z"
       id="path1433"
       inkscape:connector-curvature="0"
       style="fill:#ffffff;fill-rule:evenodd" />
    <path
       d="m 1056,907 c 129.61,0 253.66,52.632 343.73,145.83 L 1056,1385 Z"
       id="path1435"
       inkscape:connector-curvature="0"
       style="fill:#80ddf8;fill-rule:evenodd" />
    <path
       d="m 1487.96,1037.58 -98.29,-98.292 73.72,-73.719 98.29,98.292 z"
       id="path1437"
       inkscape:connector-curvature="0"
       style="fill:#00bbf1;fill-rule:evenodd" />
    <path
       d="m 1066.65,908.75 c 249.58,0.452 451.53,203.07 451.08,452.57 -0.27,147.44 -72.5,285.48 -193.5,369.79 -205.06,142.21 -486.614,91.32 -628.872,-113.68 -52.366,-75.46 -80.481,-165.09 -80.597,-256.93 -0.24,-92.21 28.117,-182.23 81.167,-257.67 84.36,-121.443 222.827,-193.933 370.722,-194.08 m 0,-34.749 C 797.882,874.001 580,1091.81 580,1360.5 c 0,268.69 217.882,486.5 486.65,486.5 268.78,-0.17 486.52,-218.12 486.35,-486.81 -0.08,-129.44 -51.76,-253.51 -143.6,-344.76 -90.98,-90.687 -214.26,-141.557 -342.75,-141.429 z"
       id="path1439"
       inkscape:connector-curvature="0"
       style="fill:#00bbf1;fill-rule:evenodd" />
    <path
       d="M 1066.5,1552 C 960.738,1552 875,1466.49 875,1361 c 0,-105.49 85.738,-191 191.5,-191 105.76,0 191.5,85.51 191.5,191 0,105.49 -85.74,191 -191.5,191 z"
       id="path1441"
       inkscape:connector-curvature="0"
       style="fill:#00bbf1;fill-rule:evenodd" />
    <path
       d="m 1136,1360.5 c 0,38.38 -31.12,69.5 -69.5,69.5 -38.38,0 -69.5,-31.12 -69.5,-69.5 0,-38.38 31.12,-69.5 69.5,-69.5 38.38,0 69.5,31.12 69.5,69.5 z"
       id="path1443"
       inkscape:connector-curvature="0"
       style="fill:#ffffff;fill-rule:evenodd" />
    <path
       d="M 962.357,822 C 952.771,822 945,814.165 945,804.5 v 0 c 0,-9.665 7.771,-17.5 17.357,-17.5 h 208.283 c 9.59,0 17.36,7.835 17.36,17.5 v 0 c 0,9.665 -7.77,17.5 -17.36,17.5 z"
       id="path1445"
       inkscape:connector-curvature="0"
       style="fill:#00bbf1;fill-rule:evenodd" />
    <path
       d="M 1080.91,1380 1048,1344.77 1349.72,1070 1364,1084.75 Z"
       id="path1447"
       inkscape:connector-curvature="0"
       style="fill:#e25a1c;fill-rule:evenodd" />
    <path
       d="m 1067,961.5 v 104.3 m 0,608.4 v 104.3 M 667.5,1361.31 h 104.218 m 590.562,0 h 104.22"
       stroke-miterlimit="8"
       id="path1449"
       inkscape:connector-curvature="0"
       style="fill:#e25a1c;fill-rule:evenodd;stroke:#e25a1c;stroke-width:34.69729996;stroke-miterlimit:8" />
  </g>
</svg>
