<?xml version="1.0" encoding="UTF-8" standalone="no"?>
<!DOCTYPE svg PUBLIC "-//W3C//DTD SVG 1.1//EN" "http://www.w3.org/Graphics/SVG/1.1/DTD/svg11.dtd">
<svg version="1.1" xmlns="http://www.w3.org/2000/svg" xmlns:xlink="http://www.w3.org/1999/xlink" preserveAspectRatio="xMidYMid meet" viewBox="78.7126650241767 51.26413023935704 536.1072905047646 520.5656573365059" width="532.11" height="516.57"><defs><path d="" id="b4AaiJG5j"></path><path d="M235.42 398.86L273.31 392.3L143.04 568.83L271.69 448.76L305.18 374.77L274.25 350.76L243.41 344.59L80.26 492.42L235.42 398.86Z" id="cdjkvYc7K"></path><path d="M254.3 375.07L176.39 469.4L281.2 403.04L239.38 537.41L357.66 375.02L372.83 294.72L285.93 301.33L116.58 402.48L254.3 375.07Z" id="a8Lig0iuL"></path><path d="M466.72 356.86C466.54 354.71 466.5 353.65 466.37 352.59C462.82 324.45 459.3 296.3 455.62 268.18C455.25 265.36 455.89 263.97 458.25 262.48C485.17 245.44 512.03 228.28 538.91 211.14C539.85 210.54 540.75 209.86 541.51 208.47C535.5 208.12 529.49 207.74 523.48 207.41C498.51 206.02 473.54 204.62 448.57 203.32C446.24 203.2 445.5 202.21 445.1 199.97C440.13 172.45 435.06 144.95 430.02 117.44C429.76 116.01 429.44 114.6 428.36 113.11C425.2 118.9 422.02 124.67 418.88 130.47C407.79 150.94 396.71 171.42 385.63 191.89C384.43 194.1 383.09 196.24 382.09 198.54C381.13 200.72 379.77 201.18 377.66 201.16C347.75 200.93 317.84 200.8 287.93 200.66C286.61 200.65 285.29 200.77 283.6 201.56C302.31 218.42 321.01 235.27 340.01 252.39C338.96 252.8 338.25 253.15 337.52 253.36C320.55 258.12 303.58 262.83 286.64 267.66C284.61 268.23 283.26 267.95 281.72 266.43C268.07 252.92 254.31 239.53 240.62 226.06C234.47 220.01 229.46 213.07 226.63 204.55C220.23 185.3 228.5 168.75 247.67 163.5C253.94 161.79 260.61 161.17 267.05 161.15C296.46 161.04 325.85 161.29 355.24 161.51C357.7 161.53 359.09 160.83 360.39 158.41C371.38 137.89 382.5 117.43 393.63 96.99C399.58 86.06 404.72 74.51 413.67 65.7C417.1 62.31 420.91 59.14 424.98 56.71C439.71 47.9 454.47 52.44 461.46 68.07C463.82 73.35 465.4 79.16 466.51 84.95C471.38 110.38 476.01 135.88 480.55 161.4C481.09 164.42 482.19 165.36 485.05 165.51C517.33 167.21 549.59 169.04 581.85 170.86C588.51 171.24 594.86 172.72 600.66 176.11C613.27 183.49 615.4 196.56 605.99 208.98C601.71 214.64 596.25 218.79 590.45 222.49C561.05 241.23 531.67 260.01 502.22 278.66C499.81 280.18 499.25 281.69 499.61 284.44C503.36 313.43 506.99 342.43 510.68 371.43C511.56 378.38 511.67 385.3 509.39 392.14C504.2 407.69 489.23 416.72 474.05 414.02C465.55 412.51 458.69 408.09 451.99 402.99C435.67 390.56 419.28 378.22 402.86 365.92C401.34 364.79 400.93 363.85 401.31 361.77C403.97 347.15 406.43 332.48 408.97 317.84C409.03 317.44 409.28 317.06 409.63 316.23C428.51 329.67 447.23 342.99 466.72 356.86" id="aOm8flb1G"></path></defs><g><g><g><use xlink:href="#b4AaiJG5j" opacity="1" fill-opacity="0" stroke="#5fcbef" stroke-width="1" stroke-opacity="1"></use></g></g><g><use xlink:href="#cdjkvYc7K" opacity="1" fill="#9fe0f5" fill-opacity="1"></use><g><use xlink:href="#cdjkvYc7K" opacity="1" fill-opacity="0" stroke="#9fe0f5" stroke-width="1" stroke-opacity="1"></use></g></g><g><use xlink:href="#a8Lig0iuL" opacity="1" fill="#5fcbef" fill-opacity="1"></use><g><use xlink:href="#a8Lig0iuL" opacity="1" fill-opacity="0" stroke="#5fcbef" stroke-width="1" stroke-opacity="1"></use></g></g><g><use xlink:href="#aOm8flb1G" opacity="1" fill="#e25a1c" fill-opacity="1"></use><g><use xlink:href="#aOm8flb1G" opacity="1" fill-opacity="0" stroke="#000000" stroke-width="1" stroke-opacity="0"></use></g></g></g></svg>