<svg xmlns="http://www.w3.org/2000/svg" height="316.17" width="367.83" version="1">
  <defs>
    <clipPath id="a">
      <path d="M0 0h367.67v316H0z"/>
    </clipPath>
  </defs>
  <path d="M120.37 52.32v212.64M184.4 160.96l-64.03 104M61.14 162.08l59.07 102.88M306.52 159.84L120.37 264.96M247.46 264.96h-127.1" fill="none" stroke="#e25a1c" stroke-width="6.08" stroke-linecap="round" stroke-linejoin="round"/>
  <path d="M.64 162.08v-3.04l.32-1.44.16-1.44.32-1.44.48-1.44.48-1.28.48-1.44.64-1.28.64-1.28.8-1.28.8-1.12.8-1.12.96-1.12.96-1.12.96-.96.96-1.12 1.12-.8 1.13-.96 1.28-.8 1.28-.8 1.12-.64 1.44-.64 1.28-.64 1.44-.48 1.28-.48 1.44-.48 1.44-.32 1.6-.16 1.44-.32h6.24l1.44.32 1.6.16 1.45.32 1.44.48 1.44.48 1.28.48 1.44.64 1.28.64 1.28.64 1.12.8 1.28.8 1.12.96 1.12.8.96 1.12.96.96.96 1.12.96 1.12.8 1.12.8 1.12.8 1.28.64 1.28.64 1.28.48 1.44.48 1.28.48 1.44.32 1.44.16 1.44.32 1.44v1.6l.16 1.44-.16 1.6v1.44l-.32 1.44-.16 1.44-.32 1.44-.48 1.44-.48 1.28-.48 1.44-.64 1.28-.64 1.28-.8 1.28-.8 1.12-.8 1.12-.96 1.12-.96 1.12-.96 1.12-.96.96-1.12.8-1.12.96-1.28.8-1.12.8-1.28.64-1.28.64-1.44.64-1.28.48-1.44.48-1.44.48-1.45.32-1.6.16-1.44.32h-1.6l-1.44.16-1.6-.16h-1.6l-1.44-.32-1.6-.16-1.44-.32-1.44-.48-1.28-.48-1.44-.48-1.28-.64-1.44-.64-1.12-.64-1.28-.8-1.28-.8-1.13-.96-1.12-.8-.96-.96-.96-1.12-.96-1.12-.96-1.12-.8-1.12-.8-1.12-.8-1.28-.64-1.28-.64-1.28-.48-1.44-.48-1.28-.48-1.44-.32-1.44-.16-1.44-.32-1.44v-3.04zM306.52 159.84v-3.04l.32-1.44.16-1.6.32-1.28.48-1.44.48-1.44.48-1.28.64-1.28.64-1.28.8-1.28.8-1.12.8-1.28.97-.96.96-1.12.96-1.12.96-.96 1.12-.8 1.12-.96 1.28-.8 1.28-.8 1.12-.64 1.44-.64 1.28-.64 1.44-.48 1.28-.48 1.44-.48 1.44-.32 1.6-.16 1.44-.32h6.24l1.45.32 1.6.16 1.44.32 1.44.48 1.44.48 1.28.48 1.44.64 1.28.64 1.28.64 1.12.8 1.28.8 1.12.96 1.12.8.96.96.96 1.12.96 1.12.96.96.8 1.28.8 1.12.8 1.28.65 1.28.64 1.28.48 1.28.48 1.44.48 1.44.32 1.28.16 1.6.32 1.44v1.44l.16 1.6-.16 1.44v1.44l-.32 1.6-.16 1.44-.32 1.44-.48 1.28-.48 1.44-.48 1.28-.64 1.28-.65 1.28-.8 1.28-.8 1.12-.8 1.28-.96 1.12-.96.96-.96 1.12-.96.96-1.12.96-1.12.8-1.28.8-1.12.8-1.28.64-1.28.64-1.44.64-1.28.48-1.44.48-1.44.48-1.44.32-1.6.16-1.44.32h-1.6l-1.45.16-1.6-.16h-1.6l-1.44-.32-1.6-.16-1.44-.32-1.44-.48-1.28-.48-1.44-.48-1.28-.64-1.44-.64-1.12-.64-1.28-.8-1.28-.8-1.12-.8-1.12-.96-.96-.96-.96-1.12-.96-.96-.97-1.12-.8-1.28-.8-1.12-.8-1.28-.64-1.28-.64-1.28-.48-1.28-.48-1.44-.48-1.28-.32-1.44-.16-1.44-.32-1.6v-2.88zM68.67 31.36v-3.04l.32-1.44.16-1.44.32-1.44.48-1.44.48-1.28.48-1.44.64-1.28.64-1.28.8-1.28.8-1.12.8-1.12.96-1.12.96-1.12.96-.96.96-1.12 1.12-.8 1.12-.96 1.28-.8 1.28-.8 1.12-.64 1.44-.64 1.28-.64 1.45-.48 1.28-.48 1.44-.48 1.44-.32 1.6-.16 1.44-.32h6.24l1.44.32 1.6.16 1.44.32 1.44.48 1.44.48 1.28.48 1.44.64 1.29.64 1.28.64 1.12.8 1.28.8 1.12.96 1.12.8.96 1.12.96.96.96 1.12.96 1.12.8 1.12.8 1.12.8 1.28.64 1.28.64 1.28.48 1.44.48 1.28.48 1.44.32 1.44.16 1.44.32 1.44v1.6l.16 1.44-.16 1.6v1.44l-.32 1.44-.16 1.44-.32 1.44-.48 1.44-.48 1.28-.48 1.44-.64 1.28-.64 1.28-.8 1.28-.8 1.12-.8 1.12-.96 1.12-.96 1.12-.96 1.12-.96.96-1.12.8-1.12.96-1.28.8-1.12.8-1.28.64-1.29.64-1.44.64-1.28.48-1.44.48-1.44.48-1.44.32-1.6.16-1.44.32h-1.6l-1.44.16-1.6-.16h-1.6l-1.44-.32-1.6-.16-1.44-.32-1.44-.48-1.28-.48-1.45-.48-1.28-.64-1.44-.64-1.12-.64-1.28-.8-1.28-.8-1.12-.96-1.12-.8-.96-.96-.96-1.12-.96-1.12-.96-1.12-.8-1.12-.8-1.12-.8-1.28-.64-1.28-.64-1.28-.48-1.44-.48-1.28-.48-1.44-.32-1.44-.16-1.44-.32-1.44v-3.04z" fill="#00bbf1" fill-rule="evenodd"/>
  <path d="M68.67 285.76v-3.04l.32-1.44.16-1.44.32-1.44.48-1.44.48-1.28.48-1.44.64-1.28.64-1.28.8-1.28.8-1.12.8-1.12.96-1.12.96-1.12.96-.96.96-1.12 1.12-.8 1.12-.96 1.28-.8 1.28-.8 1.12-.64 1.44-.64 1.28-.64 1.45-.48 1.28-.48 1.44-.48 1.44-.32 1.6-.16 1.44-.32h6.24l1.44.32 1.6.16 1.44.32 1.44.48 1.44.48 1.28.48 1.44.64 1.29.64 1.28.64 1.12.8 1.28.8 1.12.96 1.12.8.96 1.12.96.96.96 1.12.96 1.12.8 1.12.8 1.12.8 1.28.64 1.28.64 1.28.48 1.44.48 1.28.48 1.44.32 1.44.16 1.44.32 1.44v1.6l.16 1.44-.16 1.6v1.44l-.32 1.44-.16 1.44-.32 1.44-.48 1.44-.48 1.28-.48 1.44-.64 1.28-.64 1.28-.8 1.28-.8 1.12-.8 1.12-.96 1.12-.96 1.12-.96 1.12-.96.96-1.12.8-1.12.96-1.28.8-1.12.8-1.28.64-1.29.64-1.44.64-1.28.48-1.44.48-1.44.48-1.44.32-1.6.16-1.44.32h-1.6l-1.44.16-1.6-.16h-1.6l-1.44-.32-1.6-.16-1.44-.32-1.44-.48-1.28-.48-1.45-.48-1.28-.64-1.44-.64-1.12-.64-1.28-.8-1.28-.8-1.12-.96-1.12-.8-.96-.96-.96-1.12-.96-1.12-.96-1.12-.8-1.12-.8-1.12-.8-1.28-.64-1.28-.64-1.28-.48-1.44-.48-1.28-.48-1.44-.32-1.44-.16-1.44-.32-1.44v-3.04z" fill="#e25a1c" fill-rule="evenodd"/>
  <path d="M238.66 285.76v-3.04l.32-1.44.16-1.44.32-1.44.48-1.44.48-1.28.48-1.44.64-1.28.64-1.28.8-1.28.8-1.12.8-1.12.96-1.12.96-1.12.96-.96.96-1.12 1.12-.8 1.12-.96 1.28-.8 1.28-.8 1.12-.64 1.44-.64 1.28-.64 1.44-.48 1.28-.48 1.44-.48 1.44-.32 1.6-.16 1.45-.32h6.24l1.44.32 1.6.16 1.44.32 1.44.48 1.44.48 1.28.48 1.44.64 1.28.64 1.28.64 1.12.8 1.28.8 1.12.96 1.13.8.96 1.12.96.96.96 1.12.96 1.12.8 1.12.8 1.12.8 1.28.64 1.28.64 1.28.48 1.44.48 1.28.48 1.44.32 1.44.16 1.44.32 1.44v1.6l.16 1.44-.16 1.6v1.44l-.32 1.44-.16 1.44-.32 1.44-.48 1.44-.48 1.28-.48 1.44-.64 1.28-.64 1.28-.8 1.28-.8 1.12-.8 1.12-.96 1.12-.96 1.12-.96 1.12-.96.96-1.13.8-1.12.96-1.28.8-1.12.8-1.28.64-1.28.64-1.44.64-1.28.48-1.44.48-1.44.48-1.44.32-1.6.16-1.44.32h-1.6l-1.44.16-1.6-.16h-1.6l-1.44-.32-1.6-.16-1.45-.32-1.44-.48-1.28-.48-1.44-.48-1.28-.64-1.44-.64-1.12-.64-1.28-.8-1.28-.8-1.12-.96-1.12-.8-.96-.96-.96-1.12-.96-1.12-.96-1.12-.8-1.12-.8-1.12-.8-1.28-.64-1.28-.64-1.28-.48-1.44-.48-1.28-.48-1.44-.32-1.44-.16-1.44-.32-1.44v-3.04z" fill="#00bbf1" fill-rule="evenodd"/>
  <path d="M120.37 52.32l127.09 212.64M120.37 52.32l186.15 107.52M61.14 162.08l59.07-109.76M61.14 162.08L247.3 264.96M306.52 159.84l-59.06 105.12M61.14 162.08l245.22-2.24" fill="none" stroke="#00bbf1" stroke-width="6.08" stroke-linecap="round" stroke-linejoin="round"/>
  <path d="M246.34 52l1.12 212.96M246.34 52l60.18 107.68M246.18 52L187.1 158.4" fill="none" stroke="#9fe0f5" stroke-width="6.08" stroke-linecap="round" stroke-linejoin="round"/>
  <path d="M237.53 31.2v-1.44l.16-1.6.16-1.44.33-1.44.32-1.44.48-1.44.32-1.28.64-1.44.64-1.28.64-1.28.64-1.12.8-1.28.96-1.12.8-1.12.96-1.12.96-.96 1.12-.96 1.12-.96 1.12-.8 1.12-.96 1.28-.64 1.28-.8 1.28-.64 1.28-.64 1.44-.48 1.44-.48 1.44-.32 1.44-.32 1.44-.32 1.6-.16 1.45-.16h3.2l1.44.16 1.6.16 1.44.32 1.44.32 1.44.32 1.44.48 1.44.48 1.28.64 1.28.64 1.28.8 1.28.64 1.12.96 1.12.8 1.12.96 1.13.96.96.96.96 1.12.96 1.12.8 1.12.8 1.28.64 1.12.64 1.28.64 1.28.64 1.44.48 1.28.32 1.44.32 1.44.32 1.44.16 1.44.16 1.6v2.88l-.16 1.6-.16 1.44-.32 1.44-.32 1.44-.32 1.44-.48 1.28-.64 1.44L295 44l-.64 1.28-.64 1.12-.8 1.28-.8 1.12-.96 1.12-.96 1.12-.96.96-1.13.96-1.12.96-1.12.8-1.12.96-1.28.64-1.28.8-1.28.64-1.28.64-1.44.48-1.44.48-1.44.32-1.44.32-1.44.32-1.6.16-1.44.16h-3.2l-1.44-.16-1.6-.16-1.45-.32-1.44-.32-1.44-.32-1.44-.48-1.44-.48-1.28-.64-1.28-.64-1.28-.8-1.28-.64-1.12-.96-1.12-.8-1.12-.96-1.12-.96-.96-.96-.96-1.12-.8-1.12-.96-1.12-.8-1.28-.64-1.12-.64-1.28-.64-1.28-.64-1.44-.32-1.28-.48-1.44-.32-1.44-.33-1.44-.16-1.44-.16-1.6V31.2z" fill="#80ddf8" fill-rule="evenodd"/>
  <path d="M237.53 31.2v-1.44l.16-1.6.16-1.44.33-1.44.32-1.44.48-1.44.32-1.28.64-1.44.64-1.28.64-1.28.64-1.12.8-1.28.96-1.12.8-1.12.96-1.12.96-.96 1.12-.96 1.12-.96 1.12-.8 1.12-.96 1.28-.64 1.28-.8 1.28-.64 1.28-.64 1.44-.48 1.44-.48 1.44-.32 1.44-.32 1.44-.32 1.6-.16 1.45-.16h3.2l1.44.16 1.6.16 1.44.32 1.44.32 1.44.32 1.44.48 1.44.48 1.28.64 1.28.64 1.28.8 1.28.64 1.12.96 1.12.8 1.12.96 1.13.96.96.96.96 1.12.96 1.12.8 1.12.8 1.28.64 1.12.64 1.28.64 1.28.64 1.44.48 1.28.32 1.44.32 1.44.32 1.44.16 1.44.16 1.6v2.88l-.16 1.6-.16 1.44-.32 1.44-.32 1.44-.32 1.44-.48 1.28-.64 1.44L295 44l-.64 1.28-.64 1.12-.8 1.28-.8 1.12-.96 1.12-.96 1.12-.96.96-1.13.96-1.12.96-1.12.8-1.12.96-1.28.64-1.28.8-1.28.64-1.28.64-1.44.48-1.44.48-1.44.32-1.44.32-1.44.32-1.6.16-1.44.16h-3.2l-1.44-.16-1.6-.16-1.45-.32-1.44-.32-1.44-.32-1.44-.48-1.44-.48-1.28-.64-1.28-.64-1.28-.8-1.28-.64-1.12-.96-1.12-.8-1.12-.96-1.12-.96-.96-.96-.96-1.12-.8-1.12-.96-1.12-.8-1.28-.64-1.12-.64-1.28-.64-1.28-.64-1.44-.32-1.28-.48-1.44-.32-1.44-.33-1.44-.16-1.44-.16-1.6V31.2" clip-path="url(#a)" fill="none" stroke="#7fdcf7" stroke-width="2.08" stroke-linecap="round" stroke-linejoin="round"/>
  <path d="M246.18 52L61.14 162.08M120.37 52.16L246.34 52" fill="none" stroke="#9fe0f5" stroke-width="6.08" stroke-linecap="round" stroke-linejoin="round"/>
</svg>
